#tb 0: 1/25
#media_type 0: video
#codec_id 0: rawvideo
#dimensions 0: 704x480
#sar 0: 1/1
0,          0,          0,        1,   506880, 0x884bc093
0,          1,          1,        1,   506880, 0x4b09548f
0,          2,          2,        1,   506880, 0x195cbee1
0,          3,          3,        1,   506880, 0xc8141e28
0,          4,          4,        1,   506880, 0xb170c49b
0,          5,          5,        1,   506880, 0x2782268a
0,          6,          6,        1,   506880, 0x2782268a
0,          7,          7,        1,   506880, 0x2782268a
0,          8,          8,        1,   506880, 0x2782268a
0,          9,          9,        1,   506880, 0xe6803b32
0,         10,         10,        1,   506880, 0xe6803b32
0,         11,         11,        1,   506880, 0xa5ef9baf
0,         12,         12,        1,   506880, 0xa5ef9baf
0,         13,         13,        1,   506880, 0x46e8cbcb
0,         14,         14,        1,   506880, 0x28a2239b
0,         15,         15,        1,   506880, 0x7667af2f
0,         16,         16,        1,   506880, 0x7667af2f
0,         17,         17,        1,   506880, 0x8011bcaf
0,         18,         18,        1,   506880, 0xd422115b
0,         19,         19,        1,   506880, 0xd422115b
0,         20,         20,        1,   506880, 0xd422115b
0,         21,         21,        1,   506880, 0xbcee0b5b
0,         22,         22,        1,   506880, 0x08fe9ec8
0,         23,         23,        1,   506880, 0xc8fb8b37
0,         24,         24,        1,   506880, 0xc8fb8b37
0,         25,         25,        1,   506880, 0x2c698b52
0,         26,         26,        1,   506880, 0x2c698b52
0,         27,         27,        1,   506880, 0x2c698b52
0,         28,         28,        1,   506880, 0x2b4ad9bc
0,         29,         29,        1,   506880, 0x2b4ad9bc
0,         30,         30,        1,   506880, 0x2b4ad9bc
0,         31,         31,        1,   506880, 0x2b4ad9bc
0,         32,         32,        1,   506880, 0x92e84ebb
0,         33,         33,        1,   506880, 0x92e84ebb
0,         34,         34,        1,   506880, 0xdb877da3
0,         35,         35,        1,   506880, 0xdb877da3
0,         36,         36,        1,   506880, 0xdb877da3
0,         37,         37,        1,   506880, 0x44610654
0,         38,         38,        1,   506880, 0x44610654
0,         39,         39,        1,   506880, 0xe254ce67
0,         40,         40,        1,   506880, 0xa6085385
0,         41,         41,        1,   506880, 0x2d45d744
0,         42,         42,        1,   506880, 0x2d45d744
0,         43,         43,        1,   506880, 0x6e684f51
0,         44,         44,        1,   506880, 0xe96186cf
0,         45,         45,        1,   506880, 0xb535d369
0,         46,         46,        1,   506880, 0xb535d369
0,         47,         47,        1,   506880, 0xb535d369
0,         48,         48,        1,   506880, 0xeed0b7e0
0,         49,         49,        1,   506880, 0xeed0b7e0
0,         50,         50,        1,   506880, 0xeed0b7e0
0,         51,         51,        1,   506880, 0xeed0b7e0
0,         52,         52,        1,   506880, 0x8789b20b
0,         53,         53,        1,   506880, 0x0a0f42fb
0,         54,         54,        1,   506880, 0x09bbac2d
0,         55,         55,        1,   506880, 0x09bbac2d
0,         56,         56,        1,   506880, 0x09bbac2d
0,         57,         57,        1,   506880, 0x09bbac2d
0,         58,         58,        1,   506880, 0x09bbac2d
0,         59,         59,        1,   506880, 0xda77f0df
